<svg width="50" height="50" viewBox="0 0 50 50" fill="none" xmlns="http://www.w3.org/2000/svg">
<g clip-path="url(#clip0_4_14)">
<path d="M25 50C38.8071 50 50 38.8071 50 25C50 11.1929 38.8071 0 25 0C11.1929 0 0 11.1929 0 25C0 38.8071 11.1929 50 25 50Z" fill="#F38020"/>
<path d="M29.6973 28.9258C29.8486 28.3984 29.79 27.915 29.5361 27.5537C29.3018 27.2266 28.9062 27.0361 28.4326 27.0117L19.4141 26.8945C19.3604 26.8945 19.3066 26.8652 19.2773 26.8213C19.248 26.7773 19.2432 26.7188 19.2578 26.6602C19.2871 26.5723 19.375 26.5039 19.4678 26.499L28.5693 26.3818C29.6484 26.333 30.8203 25.459 31.2305 24.3896L31.748 23.0322C31.7725 22.9736 31.7773 22.915 31.7627 22.8564C31.1768 20.2051 28.8086 18.2275 25.9814 18.2275C23.374 18.2275 21.1621 19.9121 20.3711 22.251C19.8584 21.8701 19.2041 21.665 18.501 21.7334C17.2461 21.8555 16.2451 22.8613 16.1182 24.1162C16.0889 24.4385 16.1133 24.7559 16.1865 25.0488C14.1406 25.1074 12.5098 26.7773 12.5098 28.8379C12.5098 29.0186 12.5244 29.2041 12.5488 29.3848C12.5635 29.4727 12.6367 29.5361 12.7246 29.5361H29.3701C29.4629 29.5361 29.5557 29.4678 29.5801 29.375L29.6973 28.9258ZM32.5684 23.1299C32.4902 23.1299 32.4023 23.1299 32.3193 23.1396C32.2607 23.1396 32.2119 23.1836 32.1875 23.2422L31.8359 24.4629C31.6846 24.9902 31.7383 25.4736 31.9971 25.835C32.2314 26.1621 32.627 26.3525 33.1055 26.377L35.0244 26.4941C35.083 26.4941 35.1367 26.5234 35.1611 26.5674C35.1904 26.6113 35.1953 26.6797 35.1855 26.7285C35.1562 26.8164 35.0684 26.8848 34.9707 26.8896L32.9688 27.0068C31.8848 27.0557 30.7227 27.9297 30.3076 28.999L30.1611 29.3701C30.1318 29.4434 30.1855 29.5166 30.2637 29.5166H37.1387C37.2168 29.5166 37.29 29.4678 37.3145 29.3848C37.4316 28.96 37.4951 28.5107 37.4951 28.0518C37.4951 25.3418 35.2832 23.1299 32.5635 23.1299" fill="white"/>
</g>
<defs>
<clipPath id="clip0_4_14">
<rect width="50" height="50" fill="white"/>
</clipPath>
</defs>
</svg>
