<svg width="50" height="50" viewBox="0 0 50 50" fill="none" xmlns="http://www.w3.org/2000/svg">
<g clip-path="url(#clip0_4_60)">
<path d="M16.6667 50C21.2667 50 25 46.2666 25 41.6666V33.3333H16.6667C12.0667 33.3333 8.33337 37.0666 8.33337 41.6666C8.33337 46.2666 12.0667 50 16.6667 50Z" fill="#0ACF83"/>
<path d="M8.33337 25C8.33337 20.4 12.0667 16.6667 16.6667 16.6667H25V33.3334H16.6667C12.0667 33.3334 8.33337 29.6 8.33337 25Z" fill="#A259FF"/>
<path d="M8.33337 8.33333C8.33337 3.73333 12.0667 0 16.6667 0H25V16.6667H16.6667C12.0667 16.6667 8.33337 12.9333 8.33337 8.33333Z" fill="#F24E1E"/>
<path d="M25 0H33.3333C37.9333 0 41.6667 3.73333 41.6667 8.33333C41.6667 12.9333 37.9333 16.6667 33.3333 16.6667H25V0Z" fill="#FF7262"/>
<path d="M41.6667 25C41.6667 29.6 37.9333 33.3334 33.3333 33.3334C28.7333 33.3334 25 29.6 25 25C25 20.4 28.7333 16.6667 33.3333 16.6667C37.9333 16.6667 41.6667 20.4 41.6667 25Z" fill="#1ABCFE"/>
</g>
<defs>
<clipPath id="clip0_4_60">
<rect width="50" height="50" fill="white"/>
</clipPath>
</defs>
</svg>
