<svg width="50" height="50" viewBox="0 0 50 50" fill="none" xmlns="http://www.w3.org/2000/svg">
<g clip-path="url(#clip0_4_81)">
<path d="M50.0042 3.87502V1.66877C49.5625 1.66877 49.1313 1.48752 48.8209 1.1771C48.5125 0.868766 48.3334 0.435433 48.3334 -0.00415039H46.1229C46.0792 0.92085 45.2896 1.63335 44.3646 1.5896C43.5042 1.54585 42.8167 0.856266 42.7729 -0.00415039H40.5625C40.5063 0.92085 39.7125 1.62502 38.7854 1.56877C37.9417 1.51668 37.2667 0.8396 37.2125 -0.00415039H35.0063C34.9584 0.92085 34.1729 1.63335 33.2459 1.5896C32.3854 1.54585 31.6979 0.856266 31.6521 -0.00415039H29.4438C29.3979 0.92085 28.6125 1.63335 27.6854 1.5896C26.825 1.54585 26.1375 0.856266 26.0917 -0.00415039H23.8854C23.8292 0.92085 23.0354 1.62502 22.1084 1.56877C21.2646 1.51668 20.5896 0.8396 20.5354 -0.00415039H18.3271C18.3042 0.92085 17.5292 1.64377 16.6063 1.60835C15.7271 1.57918 15.0209 0.872933 14.9896 -0.00415039H12.7813C12.7375 0.92085 11.9479 1.63335 11.0229 1.5896C10.1625 1.54377 9.47294 0.856266 9.43127 -0.00415039H7.22294C7.18961 0.92085 6.41252 1.64377 5.48961 1.60835C4.61044 1.57918 3.90627 0.872933 3.87502 -0.00415039H1.66669C1.66669 0.435433 1.48752 0.868766 1.17711 1.1771C0.866691 1.48752 0.435441 1.66877 -0.00622559 1.66877V3.87502C0.918774 3.91043 1.63961 4.68543 1.60627 5.60835C1.57919 6.48752 0.872941 7.19377 -0.00622559 7.22293V9.43335C0.918774 9.46668 1.63961 10.2417 1.60627 11.1667C1.57919 12.0458 0.872941 12.75 -0.00622559 12.7813V14.9875C0.918774 14.9875 1.66877 15.7396 1.66877 16.6646C1.66877 17.5896 0.918774 18.3396 -0.00622559 18.3396V20.5458C0.918774 20.5458 1.66877 21.2938 1.66877 22.2208C1.66877 23.1479 0.920858 23.8958 -0.00622559 23.8958V26.1042C0.918774 26.1375 1.63961 26.9146 1.60627 27.8375C1.57711 28.7167 0.870858 29.4208 -0.00622559 29.4521V31.6625C0.918774 31.6625 1.66877 32.4104 1.66877 33.3354C1.66877 34.2625 0.920858 35.0125 -0.00622559 35.0125V37.2229C0.918774 37.2563 1.63961 38.0292 1.60627 38.9521C1.57711 39.8313 0.870858 40.5396 -0.00622559 40.5667V42.7771C0.918774 42.7771 1.66877 43.525 1.66877 44.4542C1.66877 45.3771 0.920858 46.1271 -0.00622559 46.1271V48.3375C0.914608 48.3417 1.66461 49.0854 1.66669 50.0104H3.87502C3.93127 49.0875 4.72919 48.3833 5.65419 48.4396C6.50002 48.4917 7.17294 49.1646 7.22502 50.0104H9.43544C9.47919 49.0875 10.2688 48.375 11.1938 48.4188C12.0542 48.4625 12.7417 49.1521 12.7854 50.0104H14.9917C15.0396 49.0875 15.825 48.375 16.7521 48.4188C17.6125 48.4625 18.3 49.1521 18.3438 50.0104H20.5521C20.5875 49.0875 21.3625 48.3625 22.2854 48.3958C23.1646 48.4292 23.8709 49.1333 23.9 50.0104H26.1104C26.1542 49.0875 26.9438 48.375 27.8688 48.4188C28.7292 48.4625 29.4167 49.1521 29.4604 50.0104H31.6667C31.7146 49.0875 32.5 48.375 33.4271 48.4188C34.2875 48.4625 34.975 49.1521 35.0209 50.0104H37.2271C37.275 49.0875 38.0604 48.375 38.9875 48.4188C39.8479 48.4625 40.5354 49.1521 40.5813 50.0104H42.7896C42.8229 49.0875 43.5979 48.3625 44.5209 48.3958C45.4 48.4292 46.1063 49.1333 46.1354 50.0104H48.3334C48.3334 49.5708 48.5125 49.1396 48.8229 48.8271C49.1313 48.5188 49.5625 48.3396 50.0042 48.3396V46.1292C49.0792 46.0729 48.3771 45.2792 48.4313 44.3542C48.4834 43.5084 49.1604 42.8333 50.0042 42.7833V40.5729C49.0792 40.525 48.3667 39.7396 48.4125 38.8146C48.4563 37.9521 49.1438 37.2646 50.0042 37.2229V35.0125C49.0792 34.9563 48.3771 34.1583 48.4313 33.2333C48.4834 32.3875 49.1604 31.7146 50.0042 31.6625V29.4521C49.0792 29.4083 48.3667 28.6188 48.4125 27.6938C48.4563 26.8354 49.1438 26.1479 50.0042 26.1021V23.8979C49.0792 23.8417 48.3771 23.0438 48.4313 22.1188C48.4834 21.2729 49.1604 20.6 50.0042 20.5479V18.3396C49.0792 18.2958 48.3667 17.5063 48.4125 16.5813C48.4563 15.7208 49.1438 15.0333 50.0042 14.9896V12.7813C49.0792 12.725 48.3771 11.9313 48.4313 11.0042C48.4834 10.1604 49.1604 9.48543 50.0042 9.43335V7.22502C49.0792 7.17918 48.3667 6.39168 48.4104 5.46668C48.4542 4.60627 49.1417 3.91877 50.0042 3.87502ZM41.5292 24.3708L28.1875 37.3417C29.3959 37.5292 30.5625 37.8104 31.8167 37.8104C34.8688 37.8104 38.375 36.8833 40.7479 35.9021L39.5313 41.6229C36.0396 43.3 33.9042 43.4375 31.8167 43.4375C29.5354 43.4375 27.35 42.6938 25.1188 42.6938C23.8625 42.6938 22.0479 42.7875 20.9334 43.5271L18.5146 39.25L32.2792 25.6229H16.4396L13.4167 39.8063H6.81252L13.6979 7.34793H35.5521L34.1563 13.9021H18.95L17.6479 19.9958H42.6L41.5292 24.3708Z" fill="#C41131"/>
</g>
<defs>
<clipPath id="clip0_4_81">
<rect width="50" height="50" fill="white"/>
</clipPath>
</defs>
</svg>
