<svg width="50" height="50" viewBox="0 0 50 50" fill="none" xmlns="http://www.w3.org/2000/svg">
<path d="M4.03963 27.2081C2.82013 25.9886 2.82013 24.0114 4.03963 22.7919L22.7919 4.03963C24.0114 2.82013 25.9886 2.82013 27.2081 4.03963L45.9603 22.7919C47.1798 24.0114 47.1798 25.9886 45.9603 27.2081L27.2081 45.9603C25.9886 47.1798 24.0114 47.1798 22.7919 45.9603L4.03963 27.2081Z" fill="#EE513B"/>
<path d="M18.9826 7.90863L17.0837 9.8076L21.9883 14.7121C21.7898 15.1378 21.6791 15.6125 21.6791 16.1131C21.6791 17.5344 22.572 18.747 23.8275 19.2206V31.2184C22.572 31.692 21.6791 32.9047 21.6791 34.3259C21.6791 36.1597 23.1656 37.6463 24.9994 37.6463C26.8331 37.6463 28.3197 36.1597 28.3197 34.3259C28.3197 33.0375 27.5858 31.9203 26.5131 31.37V19.237L31.2014 23.9253C31.0126 24.3423 30.9076 24.8053 30.9076 25.2928C30.9076 27.1266 32.3942 28.6131 34.228 28.6131C36.0617 28.6131 37.5483 27.1266 37.5483 25.2928C37.5483 23.4591 36.0617 21.9725 34.228 21.9725C33.8716 21.9725 33.5284 22.0286 33.2066 22.1325L28.1714 17.0973C28.2678 16.7864 28.3197 16.4558 28.3197 16.1131C28.3197 14.2793 26.8331 12.7928 24.9994 12.7928C24.6567 12.7928 24.3262 12.8447 24.0151 12.9411L18.9826 7.90863Z" fill="white"/>
</svg>
