<svg width="50" height="50" viewBox="0 0 50 50" fill="none" xmlns="http://www.w3.org/2000/svg">
<path d="M24.7178 40.2436C24.5485 40.2436 24.3905 40.1984 24.2438 40.1194L22.7427 39.2278C22.5169 39.1036 22.6298 39.0585 22.6975 39.0359C23.0022 38.9343 23.0587 38.9117 23.3747 38.7311C23.4086 38.7086 23.4537 38.7199 23.4876 38.7424L24.6388 39.4309C24.684 39.4535 24.7404 39.4535 24.7743 39.4309L29.2776 36.8237C29.3228 36.8011 29.3454 36.756 29.3454 36.6995V31.4964C29.3454 31.44 29.3228 31.3948 29.2776 31.3722L24.7743 28.7763C24.7291 28.7537 24.6727 28.7537 24.6388 28.7763L20.1354 31.3722C20.0903 31.3948 20.0677 31.4512 20.0677 31.4964V36.6995C20.0677 36.7447 20.0903 36.8011 20.1354 36.8237L21.3657 37.5348C22.0316 37.8734 22.4492 37.4783 22.4492 37.0833V31.9479C22.4492 31.8801 22.5056 31.8124 22.5846 31.8124H23.1603C23.228 31.8124 23.2957 31.8688 23.2957 31.9479V37.0833C23.2957 37.9749 22.8104 38.4941 21.9639 38.4941C21.7043 38.4941 21.5011 38.4941 20.9255 38.212L19.7404 37.5348C19.4469 37.3655 19.2664 37.0494 19.2664 36.7108V31.5077C19.2664 31.1691 19.4469 30.853 19.7404 30.6837L24.2438 28.0765C24.526 27.9185 24.9097 27.9185 25.1919 28.0765L29.6953 30.6837C29.9887 30.853 30.1693 31.1691 30.1693 31.5077V36.7108C30.1693 37.0494 29.9887 37.3655 29.6953 37.5348L25.1919 40.142C25.0451 40.2097 24.8758 40.2436 24.7178 40.2436ZM26.1061 36.6657C24.1309 36.6657 23.7246 35.7627 23.7246 34.9953C23.7246 34.9275 23.781 34.8598 23.86 34.8598H24.4469C24.5147 34.8598 24.5711 34.905 24.5711 34.9727C24.6614 35.5709 24.921 35.8643 26.1174 35.8643C27.0655 35.8643 27.4718 35.6499 27.4718 35.142C27.4718 34.8485 27.3589 34.6341 25.8804 34.4874C24.6501 34.3632 23.8826 34.0923 23.8826 33.1104C23.8826 32.1962 24.6501 31.6544 25.9368 31.6544C27.3815 31.6544 28.0925 32.151 28.1828 33.2345C28.1828 33.2684 28.1716 33.3023 28.149 33.3361C28.1264 33.3587 28.0925 33.3813 28.0587 33.3813H27.4718C27.4153 33.3813 27.3589 33.3361 27.3476 33.2797C27.2122 32.6589 26.8623 32.4558 25.9368 32.4558C24.8984 32.4558 24.7743 32.8169 24.7743 33.0878C24.7743 33.4151 24.921 33.5167 26.3205 33.6973C27.7088 33.8779 28.3634 34.1375 28.3634 35.1081C28.3521 36.1014 27.5395 36.6657 26.1061 36.6657Z" fill="#539E43"/>
<path d="M10.7449 19.8937C10.7449 19.6906 10.6321 19.4987 10.4515 19.3971L5.66592 16.6432C5.58692 16.598 5.49662 16.5754 5.40633 16.5641H5.36118C5.27089 16.5641 5.1806 16.598 5.10159 16.6432L0.316037 19.3971C0.13545 19.4987 0.022583 19.6906 0.022583 19.8937L0.0338697 27.2978C0.0338697 27.3994 0.0903031 27.5009 0.180597 27.5461C0.27089 27.6025 0.383757 27.6025 0.462764 27.5461L3.30701 25.9208C3.48759 25.8192 3.60046 25.6274 3.60046 25.4242V21.9592C3.60046 21.756 3.71333 21.5641 3.89391 21.4626L5.10159 20.7628C5.19188 20.7064 5.29346 20.6838 5.39504 20.6838C5.49662 20.6838 5.5982 20.7064 5.67721 20.7628L6.88489 21.4626C7.06547 21.5641 7.17834 21.756 7.17834 21.9592V25.4242C7.17834 25.6274 7.29121 25.8192 7.47179 25.9208L10.316 27.5461C10.4063 27.6025 10.5192 27.6025 10.6095 27.5461C10.6998 27.5009 10.7562 27.3994 10.7562 27.2978L10.7449 19.8937Z" fill="#333333"/>
<path d="M33.7472 9.70183C33.657 9.65668 33.5441 9.65668 33.4651 9.70183C33.3748 9.75826 33.3184 9.84856 33.3184 9.95014V17.2865C33.3184 17.3542 33.2845 17.4219 33.2168 17.4671C33.1491 17.5009 33.0813 17.5009 33.0136 17.4671L31.8172 16.7786C31.6366 16.677 31.4222 16.677 31.2416 16.7786L26.456 19.5438C26.2755 19.6454 26.1626 19.8373 26.1626 20.0404V25.5596C26.1626 25.7628 26.2755 25.9546 26.456 26.0562L31.2416 28.8215C31.4222 28.923 31.6366 28.923 31.8172 28.8215L36.6028 26.0562C36.7834 25.9546 36.8962 25.7628 36.8962 25.5596V11.8012C36.8962 11.5867 36.7834 11.3948 36.6028 11.2933L33.7472 9.70183ZM33.3071 23.7425C33.3071 23.7989 33.2845 23.844 33.2393 23.8666L31.6028 24.8147C31.5576 24.8373 31.5012 24.8373 31.4561 24.8147L29.8195 23.8666C29.7743 23.844 29.7518 23.7876 29.7518 23.7425V21.8463C29.7518 21.7899 29.7743 21.7447 29.8195 21.7221L31.4561 20.7741C31.5012 20.7515 31.5576 20.7515 31.6028 20.7741L33.2393 21.7221C33.2845 21.7447 33.3071 21.8012 33.3071 21.8463V23.7425Z" fill="#333333"/>
<path d="M49.6727 21.8011C49.8533 21.6995 49.9548 21.5077 49.9548 21.3045V19.9614C49.9548 19.7582 49.842 19.5664 49.6727 19.4648L44.921 16.7108C44.7404 16.6092 44.526 16.6092 44.3454 16.7108L39.5598 19.4761C39.3792 19.5776 39.2664 19.7695 39.2664 19.9727V25.4919C39.2664 25.695 39.3792 25.8869 39.5598 25.9885L44.3115 28.6973C44.4921 28.7989 44.7065 28.7989 44.8758 28.6973L47.7539 27.0946C47.8442 27.0494 47.9007 26.9478 47.9007 26.8463C47.9007 26.7447 47.8442 26.6431 47.7539 26.598L42.9458 23.8327C42.8555 23.7763 42.7991 23.686 42.7991 23.5844V21.8576C42.7991 21.756 42.8555 21.6544 42.9458 21.6092L44.4469 20.7515C44.5372 20.695 44.6501 20.695 44.7404 20.7515L46.2415 21.6092C46.3318 21.6657 46.3883 21.756 46.3883 21.8576V23.212C46.3883 23.3135 46.4447 23.4151 46.535 23.4603C46.6253 23.5167 46.7381 23.5167 46.8284 23.4603L49.6727 21.8011Z" fill="#333333"/>
<path d="M44.5598 21.5415C44.5936 21.519 44.6388 21.519 44.6726 21.5415L45.5869 22.072C45.6207 22.0946 45.6433 22.1284 45.6433 22.1736V23.2345C45.6433 23.2797 45.6207 23.3135 45.5869 23.3361L44.6726 23.8666C44.6388 23.8892 44.5936 23.8892 44.5598 23.8666L43.6455 23.3361C43.6117 23.3135 43.5891 23.2797 43.5891 23.2345V22.1736C43.5891 22.1284 43.6117 22.0946 43.6455 22.072L44.5598 21.5415Z" fill="#539E43"/>
<path d="M18.7472 16.7334C18.5666 16.6318 18.3521 16.6318 18.1716 16.7334L13.4199 19.4761C13.2393 19.5777 13.1377 19.7695 13.1377 19.9727V25.4693C13.1377 25.6725 13.2506 25.8643 13.4199 25.9659L18.1716 28.7086C18.3521 28.8102 18.5666 28.8102 18.7472 28.7086L23.4989 25.9659C23.6795 25.8643 23.781 25.6725 23.781 25.4693V19.9727C23.781 19.7695 23.6682 19.5777 23.4989 19.4761L18.7472 16.7334Z" fill="url(#paint0_linear_4_31)"/>
<defs>
<linearGradient id="paint0_linear_4_31" x1="738.891" y1="228.729" x2="218.04" y2="1047.11" gradientUnits="userSpaceOnUse">
<stop stop-color="#41873F"/>
<stop offset="0.3288" stop-color="#418B3D"/>
<stop offset="0.6352" stop-color="#419637"/>
<stop offset="0.9319" stop-color="#3FA92D"/>
<stop offset="1" stop-color="#3FAE2A"/>
</linearGradient>
</defs>
</svg>
