<svg width="50" height="50" viewBox="0 0 50 50" fill="none" xmlns="http://www.w3.org/2000/svg">
<path d="M25 2.34375L10.9092 3.83359L0 18.4779L25 47.5902L50 18.4779L39.091 3.83359L25 2.34375Z" fill="#FDB300"/>
<path d="M0 18.478L25 47.5901L10.1262 18.478H0Z" fill="#EB6C00"/>
<path d="M39.8736 18.478L25 47.5901L49.9998 18.478H39.8736Z" fill="#EB6C00"/>
<path d="M10.1262 18.478L25.0001 47.5901L39.8739 18.478H10.1262Z" fill="#FDAD00"/>
<path d="M10.9091 3.83365L10.1261 18.478L24.9999 2.34381L10.9091 3.83365Z" fill="#FDD231"/>
<path d="M39.8736 18.4781L39.0908 3.83352L25 2.34387L39.8736 18.4781Z" fill="#FDD231"/>
<path d="M39.8738 18.478H49.9998L39.0908 3.8335L39.8738 18.478Z" fill="#FDAD00"/>
<path d="M0 18.478H10.1262L10.9092 3.8335L0 18.478Z" fill="#FDAD00"/>
<path d="M24.9999 2.34381L10.1261 18.478H39.8738L24.9999 2.34381Z" fill="#FEEEB7"/>
</svg>
