<svg width="50" height="50" viewBox="0 0 50 50" fill="none" xmlns="http://www.w3.org/2000/svg">
<g clip-path="url(#clip0_4_5)">
<path d="M26.2166 22.1833V39.5167H22.9833V20.9667L26.2166 22.1833Z" fill="black"/>
<path d="M13.3 20.5667C13.3 16.1333 15.7167 13.7167 18.55 13.7167C21.3834 13.7167 21.7834 14.1167 25 15.7333C28.2167 17.35 29.0334 17.75 30.65 17.75C32.2667 17.75 33.0667 16.5333 33.0667 14.1167H35.8834C36.2834 18.95 33.4667 20.9667 30.6334 20.9667C27.8 20.9667 27 20.5667 24.1834 18.95C21.3667 17.3333 20.55 16.9333 18.9334 16.9333C17.3167 16.9333 16.5167 18.15 16.1167 20.9667L13.3 20.5667Z" fill="black"/>
<path d="M25 50C11.2167 50 0 38.7833 0 25C0 11.2167 11.2167 0 25 0C38.7833 0 50 11.2167 50 25C50 38.7833 38.7833 50 25 50ZM25 1.61667C12.1 1.61667 1.61667 12.1 1.61667 25C1.61667 37.9 12.1 48.3833 25 48.3833C37.9 48.3833 48.3833 37.9 48.3833 25C48.3833 12.1 37.9 1.61667 25 1.61667Z" fill="black"/>
</g>
<defs>
<clipPath id="clip0_4_5">
<rect width="50" height="50" fill="white"/>
</clipPath>
</defs>
</svg>
