<svg width="50" height="50" viewBox="0 0 50 50" fill="none" xmlns="http://www.w3.org/2000/svg">
<path d="M25 0.00830078L47.069 12.4918V37.4672L25 49.9508L2.93103 37.4672V12.4918L25 0.00830078Z" fill="white"/>
<path d="M43.1299 36.6011L25.7329 46.4531V38.7914L36.5758 32.8203L43.1299 36.6011ZM44.3208 35.5268V14.9402L37.9583 18.6128V31.8542L44.3208 35.5268ZM6.80356 36.6011L24.2006 46.4447V38.7831L13.3576 32.8203L6.80356 36.6011ZM5.61267 35.5268V14.9402L11.9752 18.6128V31.8542L5.61267 35.5268ZM6.35386 13.6078L24.2006 3.51434V10.9262L12.7663 17.2138L12.6747 17.2637L6.35386 13.6078ZM43.5713 13.6078L25.7329 3.51434V10.9262L37.1588 17.2221L37.2504 17.2721L43.5713 13.6078Z" fill="#8ED6FB"/>
<path d="M24.2005 37.0425L13.5074 31.1547V19.5039L24.2005 25.6749V37.0425ZM25.7328 37.0425L36.4259 31.163V19.5039L25.7328 25.6749V37.0425ZM14.2236 18.1548L24.9667 12.2503L35.7013 18.1548L24.9667 24.3508L14.2236 18.1548Z" fill="#1C78C0"/>
</svg>
