<svg width="50" height="50" viewBox="0 0 50 50" fill="none" xmlns="http://www.w3.org/2000/svg">
<path d="M46.875 23.4375H26.5625C25.625 23.4375 25 22.8125 25 21.875V5.15625C25 4.375 25.625 3.75 26.25 3.59375L46.5625 0C47.0312 0 47.5 0 47.8125 0.3125C48.2813 0.625 48.4375 1.09375 48.4375 1.5625V21.875C48.4375 22.8125 47.8125 23.4375 46.875 23.4375Z" fill="#00ADEF"/>
<path d="M20.3125 23.4375H1.5625C0.625 23.4375 0 22.8125 0 21.875V9.375C0 8.59375 0.625 7.96875 1.25 7.8125L20 4.6875C20.4688 4.6875 20.9375 4.6875 21.25 5C21.7188 5.3125 21.875 5.78125 21.875 6.25V21.875C21.875 22.8125 21.25 23.4375 20.3125 23.4375Z" fill="#00ADEF"/>
<path d="M46.875 50C46.7187 50 46.7187 50 46.5625 50L26.25 46.4063C25.4687 46.25 25 45.625 25 44.8438V28.125C25 27.1875 25.625 26.5625 26.5625 26.5625H46.875C47.8125 26.5625 48.4375 27.1875 48.4375 28.125V48.4375C48.4375 48.9063 48.2813 49.375 47.8125 49.6875C47.6563 49.8437 47.1875 50 46.875 50Z" fill="#00ADEF"/>
<path d="M20.3125 45.3125C20.1562 45.3125 20.1563 45.3125 20 45.3125L1.25 42.1875C0.625 42.0312 0 41.4062 0 40.625V28.125C0 27.1875 0.625 26.5625 1.5625 26.5625H20.3125C21.25 26.5625 21.875 27.1875 21.875 28.125V43.75C21.875 44.2188 21.7188 44.6875 21.25 45C21.0938 45.1562 20.625 45.3125 20.3125 45.3125Z" fill="#00ADEF"/>
</svg>
