<svg width="50" height="50" viewBox="0 0 50 50" fill="none" xmlns="http://www.w3.org/2000/svg">
<g clip-path="url(#clip0_4_83)">
<path d="M0 25C0 18.3696 2.63392 12.0107 7.32233 7.32233C12.0107 2.63392 18.3696 0 25 0C31.6304 0 37.9893 2.63392 42.6777 7.32233C47.3661 12.0107 50 18.3696 50 25C50 31.6304 47.3661 37.9893 42.6777 42.6777C37.9893 47.3661 31.6304 50 25 50C18.3696 50 12.0107 47.3661 7.32233 42.6777C2.63392 37.9893 0 31.6304 0 25Z" fill="#1A4A7F"/>
<path fill-rule="evenodd" clip-rule="evenodd" d="M20.9125 49.6625C15.9017 48.8395 11.2616 46.5063 7.61255 42.975L30.1375 22.3L17.2625 25.425C16.4103 25.6345 15.5249 25.6722 14.6579 25.536C13.7909 25.3998 12.9598 25.0923 12.2128 24.6316C11.4659 24.1709 10.8181 23.5661 10.3073 22.8524C9.79648 22.1388 9.43283 21.3306 9.23755 20.475C8.84168 18.734 9.14511 16.9072 10.0825 15.3877C11.02 13.8681 12.5165 12.7773 14.25 12.35L41.05 5.83752C44.314 8.57061 46.826 12.0919 48.3479 16.0677C49.8698 20.0435 50.3512 24.3421 49.7465 28.5561C49.1419 32.7701 47.4711 36.7598 44.8926 40.1472C42.3141 43.5347 38.9133 46.2075 35.0125 47.9125C34.9375 47.025 35.025 46.1 35.3375 45.2L39.5875 32.525L20.9125 49.6625Z" fill="url(#paint0_linear_4_83)"/>
</g>
<defs>
<linearGradient id="paint0_linear_4_83" x1="61.325" y1="3.16253" x2="-24.2624" y2="81.7" gradientUnits="userSpaceOnUse">
<stop stop-color="#FFB800"/>
<stop offset="1" stop-color="#FFF11D"/>
</linearGradient>
<clipPath id="clip0_4_83">
<rect width="50" height="50" fill="white"/>
</clipPath>
</defs>
</svg>
