<svg width="24" height="24" viewBox="0 0 24 24" fill="none" xmlns="http://www.w3.org/2000/svg">
<g clip-path="url(#clip0_46_2300)">
<path d="M2.4 4.8H21.6C22.9254 4.8 24 3.72544 24 2.4C24 1.07456 22.9254 0 21.6 0H2.4C1.07456 0 0 1.07456 0 2.4C0 3.72544 1.07456 4.8 2.4 4.8Z" fill="white"/>
<path d="M21.6 9.6001H2.4C1.07456 9.6001 0 10.6747 0 12.0001C0 13.3255 1.07456 14.4001 2.4 14.4001H21.6C22.9254 14.4001 24 13.3255 24 12.0001C24 10.6747 22.9254 9.6001 21.6 9.6001Z" fill="white"/>
<path d="M21.6 19.2002H2.4C1.07456 19.2002 0 20.2748 0 21.6002C0 22.9256 1.07456 24.0002 2.4 24.0002H21.6C22.9254 24.0002 24 22.9256 24 21.6002C24 20.2748 22.9254 19.2002 21.6 19.2002Z" fill="white"/>
</g>
<defs>
<clipPath id="clip0_46_2300">
<rect width="24" height="24" fill="white"/>
</clipPath>
</defs>
</svg>
