<svg width="150" height="49" viewBox="0 0 150 49" fill="none" xmlns="http://www.w3.org/2000/svg">
<path d="M37.7344 41.8281C37.3867 41.8281 37.0351 41.7578 36.6992 41.6172L28.0781 37.9844L19.457 41.6172C18.5937 41.9805 17.6289 41.8672 16.8711 41.3203C16.1133 40.7695 15.707 39.8867 15.7891 38.9531L16.5781 29.6289L10.457 22.5469C9.84374 21.8398 9.65233 20.8867 9.9414 19.9961C10.2305 19.1055 10.9453 18.4492 11.8594 18.2344L20.9687 16.1055L25.8086 8.09766C26.293 7.29688 27.1406 6.82031 28.0742 6.82031C29.0117 6.82031 29.8594 7.29688 30.3437 8.09766L35.1836 16.1055L44.293 18.2344C45.2031 18.4492 45.9219 19.1055 46.2109 19.9961C46.5 20.8867 46.3086 21.8398 45.6953 22.5469L39.5781 29.625L40.3672 38.9492C40.4453 39.8828 40.043 40.7656 39.2851 41.3164C38.8242 41.6523 38.2812 41.8242 37.7344 41.8281ZM13.7187 21.2227L19.2891 27.6641C19.7539 28.1992 19.9844 28.9141 19.9258 29.6211L19.207 38.1055L27.0508 34.8008C27.707 34.5273 28.4531 34.5273 29.1055 34.8008L36.9531 38.1055L36.2344 29.6211C36.1758 28.9141 36.4062 28.1992 36.8711 27.6641L42.4375 21.2227L34.1484 19.2852C33.457 19.125 32.8516 18.6836 32.4844 18.0742L28.0781 10.793L23.6719 18.0781C23.3047 18.6875 22.6992 19.125 22.0078 19.2891L13.7187 21.2227Z" fill="#3688FF"/>
<path d="M51.4589 30L56.1389 19.5H58.5389L63.2339 30H60.6839L56.8439 20.73H57.8039L53.9489 30H51.4589ZM53.7989 27.75L54.4439 25.905H59.8439L60.5039 27.75H53.7989ZM63.4849 29.985L63.6049 28.065C63.6649 28.075 63.7249 28.085 63.7849 28.095C63.8449 28.095 63.8999 28.095 63.9499 28.095C64.2299 28.095 64.4499 28.015 64.6099 27.855C64.7699 27.695 64.8899 27.48 64.9699 27.21C65.0499 26.93 65.1049 26.615 65.1349 26.265C65.1749 25.915 65.2049 25.55 65.2249 25.17L65.3449 21.93H72.2449V30H69.9049V23.28L70.4299 23.85H66.8899L67.3849 23.25L67.2799 25.275C67.2499 25.995 67.1899 26.655 67.0999 27.255C67.0199 27.855 66.8849 28.375 66.6949 28.815C66.5049 29.245 66.2499 29.58 65.9299 29.82C65.6099 30.05 65.1999 30.165 64.6999 30.165C64.5199 30.165 64.3299 30.15 64.1299 30.12C63.9299 30.09 63.7149 30.045 63.4849 29.985ZM78.4401 30.12C77.5201 30.12 76.7101 29.94 76.0101 29.58C75.3201 29.22 74.7851 28.73 74.4051 28.11C74.0251 27.48 73.8351 26.765 73.8351 25.965C73.8351 25.155 74.0201 24.44 74.3901 23.82C74.7701 23.19 75.2851 22.7 75.9351 22.35C76.5851 21.99 77.3201 21.81 78.1401 21.81C78.9301 21.81 79.6401 21.98 80.2701 22.32C80.9101 22.65 81.4151 23.13 81.7851 23.76C82.1551 24.38 82.3401 25.125 82.3401 25.995C82.3401 26.085 82.3351 26.19 82.3251 26.31C82.3151 26.42 82.3051 26.525 82.2951 26.625H75.7401V25.26H81.0651L80.1651 25.665C80.1651 25.245 80.0801 24.88 79.9101 24.57C79.7401 24.26 79.5051 24.02 79.2051 23.85C78.9051 23.67 78.5551 23.58 78.1551 23.58C77.7551 23.58 77.4001 23.67 77.0901 23.85C76.7901 24.02 76.5551 24.265 76.3851 24.585C76.2151 24.895 76.1301 25.265 76.1301 25.695V26.055C76.1301 26.495 76.2251 26.885 76.4151 27.225C76.6151 27.555 76.8901 27.81 77.2401 27.99C77.6001 28.16 78.0201 28.245 78.5001 28.245C78.9301 28.245 79.3051 28.18 79.6251 28.05C79.9551 27.92 80.2551 27.725 80.5251 27.465L81.7701 28.815C81.4001 29.235 80.9351 29.56 80.3751 29.79C79.8151 30.01 79.1701 30.12 78.4401 30.12ZM89.8488 30L87.1488 26.175L89.0538 25.05L92.6088 30H89.8488ZM84.1338 30V21.93H86.4738V30H84.1338ZM85.7838 26.94V25.065H88.6038V26.94H85.7838ZM89.2788 26.235L87.0888 25.995L89.9238 21.93H92.4138L89.2788 26.235ZM97.3488 30.12C96.4788 30.12 95.7038 29.945 95.0238 29.595C94.3438 29.235 93.8088 28.74 93.4188 28.11C93.0388 27.48 92.8488 26.765 92.8488 25.965C92.8488 25.155 93.0388 24.44 93.4188 23.82C93.8088 23.19 94.3438 22.7 95.0238 22.35C95.7038 21.99 96.4788 21.81 97.3488 21.81C98.1988 21.81 98.9388 21.99 99.5688 22.35C100.199 22.7 100.664 23.205 100.964 23.865L99.1488 24.84C98.9388 24.46 98.6738 24.18 98.3538 24C98.0438 23.82 97.7038 23.73 97.3338 23.73C96.9338 23.73 96.5738 23.82 96.2538 24C95.9338 24.18 95.6788 24.435 95.4888 24.765C95.3088 25.095 95.2188 25.495 95.2188 25.965C95.2188 26.435 95.3088 26.835 95.4888 27.165C95.6788 27.495 95.9338 27.75 96.2538 27.93C96.5738 28.11 96.9338 28.2 97.3338 28.2C97.7038 28.2 98.0438 28.115 98.3538 27.945C98.6738 27.765 98.9388 27.48 99.1488 27.09L100.964 28.08C100.664 28.73 100.199 29.235 99.5688 29.595C98.9388 29.945 98.1988 30.12 97.3488 30.12ZM107.216 30V28.425L107.066 28.08V25.26C107.066 24.76 106.911 24.37 106.601 24.09C106.301 23.81 105.836 23.67 105.206 23.67C104.776 23.67 104.351 23.74 103.931 23.88C103.521 24.01 103.171 24.19 102.881 24.42L102.041 22.785C102.481 22.475 103.011 22.235 103.631 22.065C104.251 21.895 104.881 21.81 105.521 21.81C106.751 21.81 107.706 22.1 108.386 22.68C109.066 23.26 109.406 24.165 109.406 25.395V30H107.216ZM104.756 30.12C104.126 30.12 103.586 30.015 103.136 29.805C102.686 29.585 102.341 29.29 102.101 28.92C101.861 28.55 101.741 28.135 101.741 27.675C101.741 27.195 101.856 26.775 102.086 26.415C102.326 26.055 102.701 25.775 103.211 25.575C103.721 25.365 104.386 25.26 105.206 25.26H107.351V26.625H105.461C104.911 26.625 104.531 26.715 104.321 26.895C104.121 27.075 104.021 27.3 104.021 27.57C104.021 27.87 104.136 28.11 104.366 28.29C104.606 28.46 104.931 28.545 105.341 28.545C105.731 28.545 106.081 28.455 106.391 28.275C106.701 28.085 106.926 27.81 107.066 27.45L107.426 28.53C107.256 29.05 106.946 29.445 106.496 29.715C106.046 29.985 105.466 30.12 104.756 30.12ZM111.438 30V21.93H113.763V25.08H117.273V21.93H119.613V30H117.273V26.985H113.763V30H111.438ZM127.404 28.95V23.85H124.764L124.719 24.885C124.699 25.315 124.674 25.725 124.644 26.115C124.614 26.505 124.554 26.86 124.464 27.18C124.384 27.49 124.264 27.755 124.104 27.975C123.944 28.185 123.729 28.33 123.459 28.41L121.149 28.08C121.439 28.08 121.674 27.995 121.854 27.825C122.034 27.645 122.174 27.4 122.274 27.09C122.374 26.77 122.449 26.41 122.499 26.01C122.549 25.6 122.584 25.17 122.604 24.72L122.709 21.93H129.744V28.95H127.404ZM120.879 31.74V28.08H130.899V31.74H128.724V30H123.054V31.74H120.879ZM137.126 30.12C136.446 30.12 135.851 29.97 135.341 29.67C134.831 29.37 134.431 28.915 134.141 28.305C133.861 27.685 133.721 26.905 133.721 25.965C133.721 25.015 133.856 24.235 134.126 23.625C134.396 23.015 134.786 22.56 135.296 22.26C135.806 21.96 136.416 21.81 137.126 21.81C137.886 21.81 138.566 21.985 139.166 22.335C139.776 22.675 140.256 23.155 140.606 23.775C140.966 24.395 141.146 25.125 141.146 25.965C141.146 26.815 140.966 27.55 140.606 28.17C140.256 28.79 139.776 29.27 139.166 29.61C138.566 29.95 137.886 30.12 137.126 30.12ZM132.356 32.91V21.93H134.591V23.58L134.546 25.98L134.696 28.365V32.91H132.356ZM136.721 28.2C137.111 28.2 137.456 28.11 137.756 27.93C138.066 27.75 138.311 27.495 138.491 27.165C138.681 26.825 138.776 26.425 138.776 25.965C138.776 25.495 138.681 25.095 138.491 24.765C138.311 24.435 138.066 24.18 137.756 24C137.456 23.82 137.111 23.73 136.721 23.73C136.331 23.73 135.981 23.82 135.671 24C135.361 24.18 135.116 24.435 134.936 24.765C134.756 25.095 134.666 25.495 134.666 25.965C134.666 26.425 134.756 26.825 134.936 27.165C135.116 27.495 135.361 27.75 135.671 27.93C135.981 28.11 136.331 28.2 136.721 28.2Z" fill="black"/>
</svg>
