<svg width="31" height="30" viewBox="0 0 31 30" fill="none" xmlns="http://www.w3.org/2000/svg">
<path fill-rule="evenodd" clip-rule="evenodd" d="M23.5037 7.04129C22.4642 5.99489 21.2273 5.16518 19.8648 4.60022C18.5023 4.03526 17.0412 3.74629 15.5662 3.75004C9.38125 3.75004 4.34625 8.78379 4.34375 14.9713C4.34375 16.9488 4.86 18.8788 5.84125 20.5813L4.25 26.395L10.1987 24.8338C11.8442 25.7295 13.6877 26.1992 15.5612 26.2H15.5662C21.75 26.2 26.785 21.1663 26.7875 14.9788C26.7917 13.5044 26.5037 12.0438 25.9401 10.6814C25.3765 9.31895 24.5484 8.08175 23.5037 7.04129M15.5662 24.3063H15.5625C13.8919 24.3065 12.252 23.857 10.815 23.005L10.475 22.8025L6.945 23.7288L7.88625 20.2875L7.665 19.935C6.73098 18.4481 6.23654 16.7273 6.23875 14.9713C6.24125 9.82879 10.425 5.64504 15.57 5.64504C16.7953 5.64231 18.009 5.88264 19.1408 6.3521C20.2726 6.82156 21.3001 7.51084 22.1637 8.38004C23.032 9.24509 23.7202 10.2737 24.1886 11.4063C24.657 12.5389 24.8962 13.7531 24.8925 14.9788C24.89 20.1213 20.7062 24.3063 15.5662 24.3063ZM20.6825 17.32C20.4012 17.1788 19.0237 16.5013 18.7662 16.4075C18.51 16.3138 18.3237 16.2675 18.1362 16.5475C17.9487 16.8275 17.4112 17.4588 17.2475 17.6463C17.0837 17.8338 16.92 17.8563 16.64 17.7163C16.36 17.5763 15.4562 17.28 14.385 16.325C13.5512 15.5813 12.9887 14.6638 12.825 14.3825C12.6612 14.1013 12.8075 13.95 12.9487 13.81C13.075 13.685 13.2287 13.4825 13.3687 13.3188C13.5087 13.155 13.555 13.0388 13.6487 12.8513C13.7425 12.6638 13.6962 12.5 13.625 12.36C13.555 12.2188 12.9937 10.8388 12.76 10.2775C12.5337 9.73379 12.3025 9.80629 12.13 9.79879C11.9513 9.79148 11.7726 9.78814 11.5937 9.78879C11.4516 9.79241 11.3117 9.82537 11.1828 9.8856C11.054 9.94582 10.939 10.032 10.845 10.1388C10.5875 10.42 9.86375 11.0975 9.86375 12.4775C9.86375 13.8575 10.8687 15.1913 11.0087 15.3788C11.1487 15.5663 12.9862 18.3975 15.7987 19.6125C16.4687 19.9013 16.9912 20.0738 17.3975 20.2038C18.0687 20.4175 18.68 20.3863 19.1637 20.315C19.7025 20.235 20.8225 19.6375 21.0562 18.9825C21.29 18.3275 21.29 17.7663 21.22 17.6488C21.15 17.5313 20.9612 17.46 20.6825 17.32" fill="white"/>
</svg>
