<svg width="31" height="30" viewBox="0 0 31 30" fill="none" xmlns="http://www.w3.org/2000/svg">
<path d="M26.3871 4.56812C26.3871 4.56812 28.8154 3.62124 28.613 5.9208C28.5456 6.86769 27.9385 10.1817 27.4663 13.7664L25.8474 24.3849C25.8474 24.3849 25.7126 25.9405 24.4984 26.2111C23.2842 26.4816 21.463 25.2642 21.1257 24.9936C20.8559 24.7907 16.0667 21.7472 14.3804 20.2592C13.9082 19.8534 13.3686 19.0418 14.4478 18.0949L21.5304 11.3316C22.3399 10.5199 23.1493 8.62619 19.7766 10.9257L10.3332 17.351C10.3332 17.351 9.25394 18.0273 7.23038 17.4186L2.84589 16.0659C2.84589 16.0659 1.22701 15.0514 3.99259 14.0369C10.7379 10.8581 19.0347 7.61163 26.3871 4.56812Z" fill="white"/>
</svg>
