<svg width="350" height="213" viewBox="0 0 350 213" fill="none" xmlns="http://www.w3.org/2000/svg">
<rect width="350" height="213" fill="#E64C4F"/>
<mask id="mask0_5_113" style="mask-type:luminance" maskUnits="userSpaceOnUse" x="75" y="66" width="200" height="82">
<path d="M275 66.2305H75V147.039H275V66.2305Z" fill="white"/>
</mask>
<g mask="url(#mask0_5_113)">
<g opacity="0.5" filter="url(#filter0_f_5_113)">
<path d="M75 66.2305H94.0137V118.085C96.552 120.889 99.5409 123.626 102.926 126.147C103.934 126.897 105.043 127.683 106.172 128.482C107.568 129.471 108.994 130.481 110.294 131.472V99.3714L120.514 108.202V131.472C121.814 130.481 123.24 129.471 124.636 128.482C125.765 127.683 126.874 126.897 127.882 126.147C131.267 123.626 134.256 120.889 136.794 118.085V66.2305H155.808C152.758 66.9834 146.658 71.693 146.658 84.5073V115.721C146.658 120.172 143.024 125.878 136.794 131.462C134.256 133.737 131.267 135.958 127.882 138.003C126.874 138.611 125.765 139.249 124.636 139.898C123.24 140.7 121.814 141.519 120.514 142.322C117.657 144.088 115.404 145.777 115.404 147.039C115.404 145.777 113.152 144.088 110.294 142.322C108.994 141.519 107.568 140.7 106.172 139.898C105.043 139.249 103.934 138.611 102.926 138.003C99.5516 135.964 96.5609 133.768 94.0137 131.524C87.7347 125.995 84.1503 120.177 84.1503 115.721V84.5073C84.1503 71.693 78.0501 66.9834 75 66.2305Z" fill="#FF3939"/>
<path d="M120.514 98.3932V84.5073C120.514 71.693 126.614 66.9834 129.664 66.2305H101.144C104.194 66.9834 110.294 71.693 110.294 84.5073V89.5627L120.514 98.3932Z" fill="#FF3939"/>
</g>
<g opacity="0.25" filter="url(#filter1_f_5_113)">
<path d="M75 66.2305H94.0137V118.085C96.552 120.889 99.5409 123.626 102.926 126.147C103.934 126.897 105.043 127.683 106.172 128.482C107.568 129.471 108.994 130.481 110.294 131.472V99.3714L120.514 108.202V131.472C121.814 130.481 123.24 129.471 124.636 128.482C125.765 127.683 126.874 126.897 127.882 126.147C131.267 123.626 134.256 120.889 136.794 118.085V66.2305H155.808C152.758 66.9834 146.658 71.693 146.658 84.5073V115.721C146.658 120.172 143.024 125.878 136.794 131.462C134.256 133.737 131.267 135.958 127.882 138.003C126.874 138.611 125.765 139.249 124.636 139.898C123.24 140.7 121.814 141.519 120.514 142.322C117.657 144.088 115.404 145.777 115.404 147.039C115.404 145.777 113.152 144.088 110.294 142.322C108.994 141.519 107.568 140.7 106.172 139.898C105.043 139.249 103.934 138.611 102.926 138.003C99.5516 135.964 96.5609 133.768 94.0137 131.524C87.7347 125.995 84.1503 120.177 84.1503 115.721V84.5073C84.1503 71.693 78.0501 66.9834 75 66.2305Z" fill="#FF3939"/>
<path d="M120.514 98.3932V84.5073C120.514 71.693 126.614 66.9834 129.664 66.2305H101.144C104.194 66.9834 110.294 71.693 110.294 84.5073V89.5627L120.514 98.3932Z" fill="#FF3939"/>
</g>
<g filter="url(#filter2_f_5_113)">
<path d="M75 66.2305H94.0137V118.085C96.552 120.889 99.5409 123.626 102.926 126.147C103.934 126.897 105.043 127.683 106.172 128.482C107.568 129.471 108.994 130.481 110.294 131.472V99.3714L120.514 108.202V131.472C121.814 130.481 123.24 129.471 124.636 128.482C125.765 127.683 126.874 126.897 127.882 126.147C131.267 123.626 134.256 120.889 136.794 118.085V66.2305H155.808C152.758 66.9834 146.658 71.693 146.658 84.5073V115.721C146.658 120.172 143.024 125.878 136.794 131.462C134.256 133.737 131.267 135.958 127.882 138.003C126.874 138.611 125.765 139.249 124.636 139.898C123.24 140.7 121.814 141.519 120.514 142.322C117.657 144.088 115.404 145.777 115.404 147.039C115.404 145.777 113.152 144.088 110.294 142.322C108.994 141.519 107.568 140.7 106.172 139.898C105.043 139.249 103.934 138.611 102.926 138.003C99.5516 135.964 96.5609 133.768 94.0137 131.524C87.7347 125.995 84.1503 120.177 84.1503 115.721V84.5073C84.1503 71.693 78.0501 66.9834 75 66.2305Z" fill="#FF3939"/>
<path d="M120.514 98.3932V84.5073C120.514 71.693 126.614 66.9834 129.664 66.2305H101.144C104.194 66.9834 110.294 71.693 110.294 84.5073V89.5627L120.514 98.3932Z" fill="#FF3939"/>
</g>
<g filter="url(#filter3_f_5_113)">
<path d="M75 66.2305H94.0137V118.085C96.552 120.889 99.5409 123.626 102.926 126.147C103.934 126.897 105.043 127.683 106.172 128.482C107.568 129.471 108.994 130.481 110.294 131.472V99.3714L120.514 108.202V131.472C121.814 130.481 123.24 129.471 124.636 128.482C125.765 127.683 126.874 126.897 127.882 126.147C131.267 123.626 134.256 120.889 136.794 118.085V66.2305H155.808C152.758 66.9834 146.658 71.693 146.658 84.5073V115.721C146.658 120.172 143.024 125.878 136.794 131.462C134.256 133.737 131.267 135.958 127.882 138.003C126.874 138.611 125.765 139.249 124.636 139.898C123.24 140.7 121.814 141.519 120.514 142.322C117.657 144.088 115.404 145.777 115.404 147.039C115.404 145.777 113.152 144.088 110.294 142.322C108.994 141.519 107.568 140.7 106.172 139.898C105.043 139.249 103.934 138.611 102.926 138.003C99.5516 135.964 96.5609 133.768 94.0137 131.524C87.7347 125.995 84.1503 120.177 84.1503 115.721V84.5073C84.1503 71.693 78.0501 66.9834 75 66.2305Z" fill="#FF3939"/>
<path d="M120.514 98.3932V84.5073C120.514 71.693 126.614 66.9834 129.664 66.2305H101.144C104.194 66.9834 110.294 71.693 110.294 84.5073V89.5627L120.514 98.3932Z" fill="#FF3939"/>
</g>
<path d="M75 66.2305H94.0137V118.085C96.552 120.889 99.5409 123.626 102.926 126.147C103.934 126.897 105.043 127.683 106.172 128.482C107.568 129.471 108.994 130.481 110.294 131.472V99.3714L120.514 108.202V131.472C121.814 130.481 123.24 129.471 124.636 128.482C125.765 127.683 126.874 126.897 127.882 126.147C131.267 123.626 134.256 120.889 136.794 118.085V66.2305H155.808C152.758 66.9834 146.658 71.693 146.658 84.5073V115.721C146.658 120.172 143.024 125.878 136.794 131.462C134.256 133.737 131.267 135.958 127.882 138.003C126.874 138.611 125.765 139.249 124.636 139.898C123.24 140.7 121.814 141.519 120.514 142.322C117.657 144.088 115.404 145.777 115.404 147.039C115.404 145.777 113.152 144.088 110.294 142.322C108.994 141.519 107.568 140.7 106.172 139.898C105.043 139.249 103.934 138.611 102.926 138.003C99.5516 135.964 96.5609 133.768 94.0137 131.524C87.7347 125.995 84.1503 120.177 84.1503 115.721V84.5073C84.1503 71.693 78.0501 66.9834 75 66.2305Z" fill="#FFE600"/>
<path d="M120.514 98.3932V84.5073C120.514 71.693 126.614 66.9834 129.664 66.2305H101.144C104.194 66.9834 110.294 71.693 110.294 84.5073V89.5627L120.514 98.3932Z" fill="#FFE600"/>
<path d="M178.205 136.508H173.834V115.061H178.205V136.508Z" fill="url(#paint0_linear_5_113)"/>
<path d="M187.363 136.508H183.053V115.061H186.812L197.601 128.787V115.061H201.88V136.508H198.243L187.363 122.72V136.508Z" fill="url(#paint1_linear_5_113)"/>
<path d="M213.723 136.937C210.504 136.937 207.794 136.172 205.593 134.64V130.044C206.49 130.82 207.671 131.494 209.139 132.066C210.626 132.617 212.093 132.893 213.54 132.893C214.742 132.893 215.73 132.679 216.504 132.25C217.279 131.8 217.666 131.187 217.666 130.411C217.666 129.574 217.299 128.981 216.566 128.634C216.26 128.45 215.852 128.266 215.343 128.083L214.609 127.838L212.898 127.317L211.308 126.796C211.084 126.734 210.606 126.561 209.872 126.275C209.241 126.03 208.782 125.815 208.497 125.631C207.437 124.896 206.765 124.273 206.48 123.762C205.991 122.782 205.746 121.781 205.746 120.759C205.746 118.86 206.469 117.369 207.916 116.286C209.363 115.183 211.329 114.631 213.815 114.631C216.321 114.631 218.654 115.224 220.814 116.409V120.698C218.634 119.35 216.321 118.676 213.876 118.676C211.451 118.676 210.239 119.381 210.239 120.79C210.239 121.403 210.616 121.893 211.37 122.261C211.818 122.506 212.399 122.72 213.112 122.904C214.069 123.17 214.844 123.395 215.435 123.578C217.207 124.13 218.756 124.876 220.08 125.815C221.506 126.816 222.22 128.307 222.22 130.289C222.22 132.352 221.415 133.976 219.805 135.16C218.195 136.345 216.168 136.937 213.723 136.937Z" fill="url(#paint2_linear_5_113)"/>
<path d="M230.377 136.508H226.007V115.061H230.377V136.508Z" fill="url(#paint3_linear_5_113)"/>
<path d="M243.233 136.508H235.226V115.061H243.233C246.697 115.061 249.519 116.061 251.7 118.063C253.88 120.065 254.97 122.639 254.97 125.785C254.97 128.951 253.88 131.535 251.7 133.536C249.54 135.518 246.718 136.508 243.233 136.508ZM239.627 119.013V132.556H242.867C245.251 132.556 247.105 131.963 248.429 130.779C249.774 129.574 250.446 127.909 250.446 125.785C250.446 123.66 249.774 122.006 248.429 120.821C247.105 119.616 245.251 119.013 242.867 119.013H239.627Z" fill="url(#paint4_linear_5_113)"/>
<path d="M275 136.508H258.954V115.061H274.664V119.013H263.355V123.15H272.463V127.041H263.355V132.556H275V136.508Z" fill="url(#paint5_linear_5_113)"/>
<path d="M183.034 98.3311H179.152L171.97 76.7605H176.86L181.261 91.2226L186.09 76.6992H189.513L194.373 91.2226L198.774 76.7605H203.572L196.359 98.3311H192.478L187.802 84.0222L183.034 98.3311Z" fill="url(#paint6_linear_5_113)"/>
<path d="M210.943 92.5095C212.206 93.8372 213.785 94.5011 215.68 94.5011C217.555 94.5011 219.123 93.8372 220.387 92.5095C221.65 91.1816 222.282 89.5067 222.282 87.4844C222.282 85.4622 221.65 83.7872 220.387 82.4594C219.123 81.1317 217.555 80.4678 215.68 80.4678C213.785 80.4678 212.206 81.1317 210.943 82.4594C209.7 83.7668 209.078 85.4417 209.078 87.4844C209.078 89.5271 209.7 91.2021 210.943 92.5095ZM204.586 87.4844C204.586 84.3387 205.635 81.7036 207.734 79.5793C209.832 77.414 212.481 76.3314 215.68 76.3314C218.859 76.3314 221.497 77.414 223.596 79.5793C225.715 81.7445 226.775 84.3796 226.775 87.4844C226.775 90.5688 225.715 93.2038 223.596 95.3896C221.497 97.5548 218.859 98.6375 215.68 98.6375C212.481 98.6375 209.832 97.5548 207.734 95.3896C205.635 93.2243 204.586 90.5893 204.586 87.4844Z" fill="url(#paint7_linear_5_113)"/>
<path d="M227.79 80.713V76.7605H245.731V80.713H238.946V98.2084H234.544V80.713H227.79Z" fill="url(#paint8_linear_5_113)"/>
</g>
<defs>
<filter id="filter0_f_5_113" x="60" y="51.2305" width="110.808" height="110.808" filterUnits="userSpaceOnUse" color-interpolation-filters="sRGB">
<feFlood flood-opacity="0" result="BackgroundImageFix"/>
<feBlend mode="normal" in="SourceGraphic" in2="BackgroundImageFix" result="shape"/>
<feGaussianBlur stdDeviation="7.5" result="effect1_foregroundBlur_5_113"/>
</filter>
<filter id="filter1_f_5_113" x="50" y="41.2305" width="130.808" height="130.808" filterUnits="userSpaceOnUse" color-interpolation-filters="sRGB">
<feFlood flood-opacity="0" result="BackgroundImageFix"/>
<feBlend mode="normal" in="SourceGraphic" in2="BackgroundImageFix" result="shape"/>
<feGaussianBlur stdDeviation="12.5" result="effect1_foregroundBlur_5_113"/>
</filter>
<filter id="filter2_f_5_113" x="70" y="61.2305" width="90.8081" height="90.8081" filterUnits="userSpaceOnUse" color-interpolation-filters="sRGB">
<feFlood flood-opacity="0" result="BackgroundImageFix"/>
<feBlend mode="normal" in="SourceGraphic" in2="BackgroundImageFix" result="shape"/>
<feGaussianBlur stdDeviation="2.5" result="effect1_foregroundBlur_5_113"/>
</filter>
<filter id="filter3_f_5_113" x="25" y="16.2305" width="180.808" height="180.808" filterUnits="userSpaceOnUse" color-interpolation-filters="sRGB">
<feFlood flood-opacity="0" result="BackgroundImageFix"/>
<feBlend mode="normal" in="SourceGraphic" in2="BackgroundImageFix" result="shape"/>
<feGaussianBlur stdDeviation="25" result="effect1_foregroundBlur_5_113"/>
</filter>
<linearGradient id="paint0_linear_5_113" x1="224.417" y1="114.631" x2="224.417" y2="136.937" gradientUnits="userSpaceOnUse">
<stop stop-color="white"/>
<stop offset="0.505108" stop-color="white"/>
<stop offset="0.505208" stop-color="#D2D2D2"/>
<stop offset="1" stop-color="#9E9E9E"/>
</linearGradient>
<linearGradient id="paint1_linear_5_113" x1="224.417" y1="114.631" x2="224.417" y2="136.937" gradientUnits="userSpaceOnUse">
<stop stop-color="white"/>
<stop offset="0.505108" stop-color="white"/>
<stop offset="0.505208" stop-color="#D2D2D2"/>
<stop offset="1" stop-color="#9E9E9E"/>
</linearGradient>
<linearGradient id="paint2_linear_5_113" x1="224.417" y1="114.631" x2="224.417" y2="136.937" gradientUnits="userSpaceOnUse">
<stop stop-color="white"/>
<stop offset="0.505108" stop-color="white"/>
<stop offset="0.505208" stop-color="#D2D2D2"/>
<stop offset="1" stop-color="#9E9E9E"/>
</linearGradient>
<linearGradient id="paint3_linear_5_113" x1="224.417" y1="114.631" x2="224.417" y2="136.937" gradientUnits="userSpaceOnUse">
<stop stop-color="white"/>
<stop offset="0.505108" stop-color="white"/>
<stop offset="0.505208" stop-color="#D2D2D2"/>
<stop offset="1" stop-color="#9E9E9E"/>
</linearGradient>
<linearGradient id="paint4_linear_5_113" x1="224.417" y1="114.631" x2="224.417" y2="136.937" gradientUnits="userSpaceOnUse">
<stop stop-color="white"/>
<stop offset="0.505108" stop-color="white"/>
<stop offset="0.505208" stop-color="#D2D2D2"/>
<stop offset="1" stop-color="#9E9E9E"/>
</linearGradient>
<linearGradient id="paint5_linear_5_113" x1="224.417" y1="114.631" x2="224.417" y2="136.937" gradientUnits="userSpaceOnUse">
<stop stop-color="white"/>
<stop offset="0.505108" stop-color="white"/>
<stop offset="0.505208" stop-color="#D2D2D2"/>
<stop offset="1" stop-color="#9E9E9E"/>
</linearGradient>
<linearGradient id="paint6_linear_5_113" x1="208.85" y1="76.3315" x2="208.85" y2="98.6376" gradientUnits="userSpaceOnUse">
<stop stop-color="white"/>
<stop offset="0.505108" stop-color="white"/>
<stop offset="0.505208" stop-color="#D2D2D2"/>
<stop offset="1" stop-color="#9E9E9E"/>
</linearGradient>
<linearGradient id="paint7_linear_5_113" x1="208.85" y1="76.3314" x2="208.85" y2="98.6375" gradientUnits="userSpaceOnUse">
<stop stop-color="white"/>
<stop offset="0.505108" stop-color="white"/>
<stop offset="0.505208" stop-color="#D2D2D2"/>
<stop offset="1" stop-color="#9E9E9E"/>
</linearGradient>
<linearGradient id="paint8_linear_5_113" x1="208.85" y1="76.3315" x2="208.85" y2="98.6376" gradientUnits="userSpaceOnUse">
<stop stop-color="white"/>
<stop offset="0.505108" stop-color="white"/>
<stop offset="0.505208" stop-color="#D2D2D2"/>
<stop offset="1" stop-color="#9E9E9E"/>
</linearGradient>
</defs>
</svg>
