<svg width="350" height="213" viewBox="0 0 350 213" fill="none" xmlns="http://www.w3.org/2000/svg">
<rect width="350" height="213" fill="#130E30"/>
<path fill-rule="evenodd" clip-rule="evenodd" d="M194.685 109.943L186.051 91H209.5L194.685 109.943ZM139.5 91H162.858L154.257 109.868L139.5 91Z" fill="url(#paint0_linear_5_143)"/>
<path fill-rule="evenodd" clip-rule="evenodd" d="M184.311 123L175.85 104.543L174.435 101.515L172.947 104.503L164.501 122.926L158.823 115.706L170.15 91H178.639L189.995 115.773L184.311 123Z" fill="url(#paint1_linear_5_143)"/>
<path d="M99.952 95.692L96.56 118.476H93.488L90.992 103.692H90.928L88.464 118.476H85.392L82 95.692H85.456L87.088 110.156H87.152L89.712 95.692H92.208L94.864 110.508H94.928L96.496 95.692H99.952Z" fill="url(#paint2_linear_5_143)"/>
<path d="M101.426 101.068C101.426 100.151 101.586 99.34 101.906 98.636C102.226 97.932 102.653 97.3453 103.186 96.876C103.698 96.428 104.274 96.0866 104.914 95.852C105.575 95.6173 106.237 95.5 106.898 95.5C107.559 95.5 108.21 95.6173 108.85 95.852C109.511 96.0866 110.109 96.428 110.642 96.876C111.154 97.3453 111.57 97.932 111.89 98.636C112.21 99.34 112.37 100.151 112.37 101.068V113.1C112.37 114.06 112.21 114.881 111.89 115.564C111.57 116.247 111.154 116.812 110.642 117.26C110.109 117.729 109.511 118.081 108.85 118.316C108.21 118.551 107.559 118.668 106.898 118.668C106.237 118.668 105.575 118.551 104.914 118.316C104.274 118.081 103.698 117.729 103.186 117.26C102.653 116.812 102.226 116.247 101.906 115.564C101.586 114.881 101.426 114.06 101.426 113.1V101.068ZM104.69 113.1C104.69 113.889 104.903 114.476 105.33 114.86C105.778 115.223 106.301 115.404 106.898 115.404C107.495 115.404 108.007 115.223 108.434 114.86C108.882 114.476 109.106 113.889 109.106 113.1V101.068C109.106 100.279 108.882 99.7027 108.434 99.34C108.007 98.956 107.495 98.764 106.898 98.764C106.301 98.764 105.778 98.956 105.33 99.34C104.903 99.7027 104.69 100.279 104.69 101.068V113.1Z" fill="url(#paint3_linear_5_143)"/>
<path d="M117.011 118.476V98.764H113.236V95.692H124.052V98.764H120.275V118.476H117.011Z" fill="url(#paint4_linear_5_143)"/>
<path d="M224.5 101.068C224.5 100.151 224.66 99.34 224.98 98.636C225.3 97.932 225.726 97.3453 226.26 96.876C226.772 96.428 227.348 96.0866 227.988 95.852C228.65 95.6173 229.311 95.5 229.972 95.5C230.634 95.5 231.284 95.6173 231.924 95.852C232.585 96.0866 233.183 96.428 233.716 96.876C234.228 97.3453 234.644 97.932 234.964 98.636C235.284 99.34 235.444 100.151 235.444 101.068V102.22H232.18V101.068C232.18 100.279 231.956 99.7027 231.508 99.34C231.081 98.956 230.57 98.764 229.972 98.764C229.375 98.764 228.852 98.956 228.404 99.34C227.978 99.7027 227.764 100.279 227.764 101.068V113.1C227.764 113.889 227.978 114.476 228.404 114.86C228.852 115.223 229.375 115.404 229.972 115.404C230.57 115.404 231.081 115.223 231.508 114.86C231.956 114.476 232.18 113.889 232.18 113.1V108.812H229.588V105.932H235.444V113.1C235.444 114.06 235.284 114.881 234.964 115.564C234.644 116.247 234.228 116.812 233.716 117.26C233.183 117.729 232.585 118.081 231.924 118.316C231.284 118.551 230.634 118.668 229.972 118.668C229.311 118.668 228.65 118.551 227.988 118.316C227.348 118.081 226.772 117.729 226.26 117.26C225.726 116.812 225.3 116.247 224.98 115.564C224.66 114.881 224.5 114.06 224.5 113.1V101.068Z" fill="url(#paint5_linear_5_143)"/>
<path d="M238.413 118.476V95.692H241.677V118.476H238.413Z" fill="url(#paint6_linear_5_143)"/>
<path d="M255.92 95.692L251.248 118.476H248.368L243.728 95.692H247.184L249.776 111.596H249.84L252.464 95.692H255.92Z" fill="url(#paint7_linear_5_143)"/>
<path d="M257.879 118.476V95.692H267.607V98.764H261.143V105.452H266.775V108.524H261.143V115.212H267.607V118.476H257.879Z" fill="url(#paint8_linear_5_143)"/>
<defs>
<linearGradient id="paint0_linear_5_143" x1="158.823" y1="123" x2="158.823" y2="91" gradientUnits="userSpaceOnUse">
<stop stop-color="#FF7800"/>
<stop offset="1" stop-color="#FFD600"/>
</linearGradient>
<linearGradient id="paint1_linear_5_143" x1="158.823" y1="123" x2="158.823" y2="91" gradientUnits="userSpaceOnUse">
<stop stop-color="#FF7800"/>
<stop offset="1" stop-color="#FFD600"/>
</linearGradient>
<linearGradient id="paint2_linear_5_143" x1="93.608" y1="118.668" x2="93.608" y2="95.5" gradientUnits="userSpaceOnUse">
<stop stop-color="#FF7800"/>
<stop offset="1" stop-color="#FFD600"/>
</linearGradient>
<linearGradient id="paint3_linear_5_143" x1="93.608" y1="118.668" x2="93.608" y2="95.5" gradientUnits="userSpaceOnUse">
<stop stop-color="#FF7800"/>
<stop offset="1" stop-color="#FFD600"/>
</linearGradient>
<linearGradient id="paint4_linear_5_143" x1="93.608" y1="118.668" x2="93.608" y2="95.5" gradientUnits="userSpaceOnUse">
<stop stop-color="#FF7800"/>
<stop offset="1" stop-color="#FFD600"/>
</linearGradient>
<linearGradient id="paint5_linear_5_143" x1="236.4" y1="118.668" x2="236.4" y2="95.5" gradientUnits="userSpaceOnUse">
<stop stop-color="#FF7800"/>
<stop offset="1" stop-color="#FFD600"/>
</linearGradient>
<linearGradient id="paint6_linear_5_143" x1="236.4" y1="118.668" x2="236.4" y2="95.5" gradientUnits="userSpaceOnUse">
<stop stop-color="#FF7800"/>
<stop offset="1" stop-color="#FFD600"/>
</linearGradient>
<linearGradient id="paint7_linear_5_143" x1="236.4" y1="118.668" x2="236.4" y2="95.5" gradientUnits="userSpaceOnUse">
<stop stop-color="#FF7800"/>
<stop offset="1" stop-color="#FFD600"/>
</linearGradient>
<linearGradient id="paint8_linear_5_143" x1="236.399" y1="118.668" x2="236.399" y2="95.5" gradientUnits="userSpaceOnUse">
<stop stop-color="#FF7800"/>
<stop offset="1" stop-color="#FFD600"/>
</linearGradient>
</defs>
</svg>
