<svg width="350" height="213" viewBox="0 0 350 213" fill="none" xmlns="http://www.w3.org/2000/svg">
<rect width="350" height="213" fill="#4340D8"/>
<path d="M92.7341 117V96H101.824C103.704 96 105.324 96.31 106.684 96.93C108.044 97.53 109.094 98.4 109.834 99.54C110.574 100.68 110.944 102.04 110.944 103.62C110.944 105.18 110.574 106.53 109.834 107.67C109.094 108.81 108.044 109.69 106.684 110.31C105.324 110.91 103.704 111.21 101.824 111.21H95.4341L97.5941 109.02V117H92.7341ZM97.5941 109.56L95.4341 107.25H101.554C103.054 107.25 104.174 106.93 104.914 106.29C105.654 105.65 106.024 104.76 106.024 103.62C106.024 102.46 105.654 101.56 104.914 100.92C104.174 100.28 103.054 99.96 101.554 99.96H95.4341L97.5941 97.65V109.56ZM124.907 117.36C123.247 117.36 121.707 117.09 120.287 116.55C118.887 116.01 117.667 115.25 116.627 114.27C115.607 113.29 114.807 112.14 114.227 110.82C113.667 109.5 113.387 108.06 113.387 106.5C113.387 104.94 113.667 103.5 114.227 102.18C114.807 100.86 115.617 99.71 116.657 98.73C117.697 97.75 118.917 96.99 120.317 96.45C121.717 95.91 123.237 95.64 124.877 95.64C126.537 95.64 128.057 95.91 129.437 96.45C130.837 96.99 132.047 97.75 133.067 98.73C134.107 99.71 134.917 100.86 135.497 102.18C136.077 103.48 136.367 104.92 136.367 106.5C136.367 108.06 136.077 109.51 135.497 110.85C134.917 112.17 134.107 113.32 133.067 114.3C132.047 115.26 130.837 116.01 129.437 116.55C128.057 117.09 126.547 117.36 124.907 117.36ZM124.877 113.22C125.817 113.22 126.677 113.06 127.457 112.74C128.257 112.42 128.957 111.96 129.557 111.36C130.157 110.76 130.617 110.05 130.937 109.23C131.277 108.41 131.447 107.5 131.447 106.5C131.447 105.5 131.277 104.59 130.937 103.77C130.617 102.95 130.157 102.24 129.557 101.64C128.977 101.04 128.287 100.58 127.487 100.26C126.687 99.94 125.817 99.78 124.877 99.78C123.937 99.78 123.067 99.94 122.267 100.26C121.487 100.58 120.797 101.04 120.197 101.64C119.597 102.24 119.127 102.95 118.787 103.77C118.467 104.59 118.307 105.5 118.307 106.5C118.307 107.48 118.467 108.39 118.787 109.23C119.127 110.05 119.587 110.76 120.167 111.36C120.767 111.96 121.467 112.42 122.267 112.74C123.067 113.06 123.937 113.22 124.877 113.22ZM146.919 117.36C145.239 117.36 143.629 117.14 142.089 116.7C140.549 116.24 139.309 115.65 138.369 114.93L140.019 111.27C140.919 111.91 141.979 112.44 143.199 112.86C144.439 113.26 145.689 113.46 146.949 113.46C147.909 113.46 148.679 113.37 149.259 113.19C149.859 112.99 150.299 112.72 150.579 112.38C150.859 112.04 150.999 111.65 150.999 111.21C150.999 110.65 150.779 110.21 150.339 109.89C149.899 109.55 149.319 109.28 148.599 109.08C147.879 108.86 147.079 108.66 146.199 108.48C145.339 108.28 144.469 108.04 143.589 107.76C142.729 107.48 141.939 107.12 141.219 106.68C140.499 106.24 139.909 105.66 139.449 104.94C139.009 104.22 138.789 103.3 138.789 102.18C138.789 100.98 139.109 99.89 139.749 98.91C140.409 97.91 141.389 97.12 142.689 96.54C144.009 95.94 145.659 95.64 147.639 95.64C148.959 95.64 150.259 95.8 151.539 96.12C152.819 96.42 153.949 96.88 154.929 97.5L153.429 101.19C152.449 100.63 151.469 100.22 150.489 99.96C149.509 99.68 148.549 99.54 147.609 99.54C146.669 99.54 145.899 99.65 145.299 99.87C144.699 100.09 144.269 100.38 144.009 100.74C143.749 101.08 143.619 101.48 143.619 101.94C143.619 102.48 143.839 102.92 144.279 103.26C144.719 103.58 145.299 103.84 146.019 104.04C146.739 104.24 147.529 104.44 148.389 104.64C149.269 104.84 150.139 105.07 150.999 105.33C151.879 105.59 152.679 105.94 153.399 106.38C154.119 106.82 154.699 107.4 155.139 108.12C155.599 108.84 155.829 109.75 155.829 110.85C155.829 112.03 155.499 113.11 154.839 114.09C154.179 115.07 153.189 115.86 151.869 116.46C150.569 117.06 148.919 117.36 146.919 117.36ZM163.207 117V99.96H156.487V96H174.787V99.96H168.067V117H163.207ZM176.605 117V113.85L184.705 106.2C185.345 105.62 185.815 105.1 186.115 104.64C186.415 104.18 186.615 103.76 186.715 103.38C186.835 103 186.895 102.65 186.895 102.33C186.895 101.49 186.605 100.85 186.025 100.41C185.465 99.95 184.635 99.72 183.535 99.72C182.655 99.72 181.835 99.89 181.075 100.23C180.335 100.57 179.705 101.1 179.185 101.82L175.645 99.54C176.445 98.34 177.565 97.39 179.005 96.69C180.445 95.99 182.105 95.64 183.985 95.64C185.545 95.64 186.905 95.9 188.065 96.42C189.245 96.92 190.155 97.63 190.795 98.55C191.455 99.47 191.785 100.57 191.785 101.85C191.785 102.53 191.695 103.21 191.515 103.89C191.355 104.55 191.015 105.25 190.495 105.99C189.995 106.73 189.255 107.56 188.275 108.48L181.555 114.81L180.625 113.04H192.475V117H176.605ZM202.701 117.36C201.021 117.36 199.411 117.14 197.871 116.7C196.331 116.24 195.091 115.65 194.151 114.93L195.801 111.27C196.701 111.91 197.761 112.44 198.981 112.86C200.221 113.26 201.471 113.46 202.731 113.46C203.691 113.46 204.461 113.37 205.041 113.19C205.641 112.99 206.081 112.72 206.361 112.38C206.641 112.04 206.781 111.65 206.781 111.21C206.781 110.65 206.561 110.21 206.121 109.89C205.681 109.55 205.101 109.28 204.381 109.08C203.661 108.86 202.861 108.66 201.981 108.48C201.121 108.28 200.251 108.04 199.371 107.76C198.511 107.48 197.721 107.12 197.001 106.68C196.281 106.24 195.691 105.66 195.231 104.94C194.791 104.22 194.571 103.3 194.571 102.18C194.571 100.98 194.891 99.89 195.531 98.91C196.191 97.91 197.171 97.12 198.471 96.54C199.791 95.94 201.441 95.64 203.421 95.64C204.741 95.64 206.041 95.8 207.321 96.12C208.601 96.42 209.731 96.88 210.711 97.5L209.211 101.19C208.231 100.63 207.251 100.22 206.271 99.96C205.291 99.68 204.331 99.54 203.391 99.54C202.451 99.54 201.681 99.65 201.081 99.87C200.481 100.09 200.051 100.38 199.791 100.74C199.531 101.08 199.401 101.48 199.401 101.94C199.401 102.48 199.621 102.92 200.061 103.26C200.501 103.58 201.081 103.84 201.801 104.04C202.521 104.24 203.311 104.44 204.171 104.64C205.051 104.84 205.921 105.07 206.781 105.33C207.661 105.59 208.461 105.94 209.181 106.38C209.901 106.82 210.481 107.4 210.921 108.12C211.381 108.84 211.611 109.75 211.611 110.85C211.611 112.03 211.281 113.11 210.621 114.09C209.961 115.07 208.971 115.86 207.651 116.46C206.351 117.06 204.701 117.36 202.701 117.36ZM225.131 117.36C223.471 117.36 221.931 117.09 220.511 116.55C219.111 116.01 217.891 115.25 216.851 114.27C215.831 113.29 215.031 112.14 214.451 110.82C213.891 109.5 213.611 108.06 213.611 106.5C213.611 104.94 213.891 103.5 214.451 102.18C215.031 100.86 215.841 99.71 216.881 98.73C217.921 97.75 219.141 96.99 220.541 96.45C221.941 95.91 223.461 95.64 225.101 95.64C226.761 95.64 228.281 95.91 229.661 96.45C231.061 96.99 232.271 97.75 233.291 98.73C234.331 99.71 235.141 100.86 235.721 102.18C236.301 103.48 236.591 104.92 236.591 106.5C236.591 108.06 236.301 109.51 235.721 110.85C235.141 112.17 234.331 113.32 233.291 114.3C232.271 115.26 231.061 116.01 229.661 116.55C228.281 117.09 226.771 117.36 225.131 117.36ZM225.101 113.22C226.041 113.22 226.901 113.06 227.681 112.74C228.481 112.42 229.181 111.96 229.781 111.36C230.381 110.76 230.841 110.05 231.161 109.23C231.501 108.41 231.671 107.5 231.671 106.5C231.671 105.5 231.501 104.59 231.161 103.77C230.841 102.95 230.381 102.24 229.781 101.64C229.201 101.04 228.511 100.58 227.711 100.26C226.911 99.94 226.041 99.78 225.101 99.78C224.161 99.78 223.291 99.94 222.491 100.26C221.711 100.58 221.021 101.04 220.421 101.64C219.821 102.24 219.351 102.95 219.011 103.77C218.691 104.59 218.531 105.5 218.531 106.5C218.531 107.48 218.691 108.39 219.011 109.23C219.351 110.05 219.811 110.76 220.391 111.36C220.991 111.96 221.691 112.42 222.491 112.74C223.291 113.06 224.161 113.22 225.101 113.22ZM250.294 117.36C248.674 117.36 247.164 117.1 245.764 116.58C244.384 116.04 243.184 115.28 242.164 114.3C241.144 113.32 240.344 112.17 239.764 110.85C239.204 109.53 238.924 108.08 238.924 106.5C238.924 104.92 239.204 103.47 239.764 102.15C240.344 100.83 241.144 99.68 242.164 98.7C243.204 97.72 244.414 96.97 245.794 96.45C247.174 95.91 248.684 95.64 250.324 95.64C252.144 95.64 253.784 95.96 255.244 96.6C256.724 97.22 257.964 98.14 258.964 99.36L255.844 102.24C255.124 101.42 254.324 100.81 253.444 100.41C252.564 99.99 251.604 99.78 250.564 99.78C249.584 99.78 248.684 99.94 247.864 100.26C247.044 100.58 246.334 101.04 245.734 101.64C245.134 102.24 244.664 102.95 244.324 103.77C244.004 104.59 243.844 105.5 243.844 106.5C243.844 107.5 244.004 108.41 244.324 109.23C244.664 110.05 245.134 110.76 245.734 111.36C246.334 111.96 247.044 112.42 247.864 112.74C248.684 113.06 249.584 113.22 250.564 113.22C251.604 113.22 252.564 113.02 253.444 112.62C254.324 112.2 255.124 111.57 255.844 110.73L258.964 113.61C257.964 114.83 256.724 115.76 255.244 116.4C253.784 117.04 252.134 117.36 250.294 117.36Z" fill="white"/>
</svg>
